<?xml version="1.0" standalone="no"?><svg xmlns="http://www.w3.org/2000/svg" viewBox="0 0 1440 320"><path fill="#64481E" fill-opacity="1" d="M0,288L30,266.7C60,245,120,203,180,202.7C240,203,300,245,360,245.3C420,245,480,203,540,186.7C600,171,660,181,720,202.7C780,224,840,256,900,234.7C960,213,1020,139,1080,133.3C1140,128,1200,192,1260,224C1320,256,1380,256,1410,256L1440,256L1440,320L1410,320C1380,320,1320,320,1260,320C1200,320,1140,320,1080,320C1020,320,960,320,900,320C840,320,780,320,720,320C660,320,600,320,540,320C480,320,420,320,360,320C300,320,240,320,180,320C120,320,60,320,30,320L0,320Z"></path></svg>