<?xml version="1.0" standalone="no"?><svg xmlns="http://www.w3.org/2000/svg" viewBox="0 0 1440 320"><path fill="#DBD2AF" fill-opacity="1" d="M0,96L30,122.7C60,149,120,203,180,218.7C240,235,300,213,360,202.7C420,192,480,192,540,208C600,224,660,256,720,256C780,256,840,224,900,181.3C960,139,1020,85,1080,96C1140,107,1200,181,1260,202.7C1320,224,1380,192,1410,176L1440,160L1440,320L1410,320C1380,320,1320,320,1260,320C1200,320,1140,320,1080,320C1020,320,960,320,900,320C840,320,780,320,720,320C660,320,600,320,540,320C480,320,420,320,360,320C300,320,240,320,180,320C120,320,60,320,30,320L0,320Z"></path></svg>